# xmcd
#
# Track frame offsets:
#	150
#	12627
#	24542
#	36225
#	44722
#	56227
#	64380
#	74662
#	88357
#	99735
#	108720
#	120287
#	133667
#	149070
#	158862
#	171915
#
# Disc length: 2436
#
# Revision: 2
# Processed by: cddbd v1.5.1PL0 Copyright (c) Steve Scherf et al.
# Submitted via: EasyCDDAExtractor 5.1.0
# Normalized: r1:DSETVAR1
#
DISCID=03098210
DTITLE=Various Artist - That's Country - CD1
DYEAR=1900
DGENRE=country
TTITLE0=Hank Williams - Lovesick Blues
TTITLE1=Jim reeves - Mexican Joe
TTITLE2=Tammy Wynette - Stand By Your Man
TTITLE3=Waylon Jennings - Abilene
TTITLE4=Freddy Fender - Before The Next Teardrop Falls
TTITLE5=Don Gibson - Blue, Blue Day
TTITLE6=Ferlin Husky - Wings Of A dove
TTITLE7=Ernest Tubb - Walking The Floor Over You
TTITLE8=Donna Fargo - The happiest Girl In The Whole USA
TTITLE9=Webb Pierce - I Ain't Never
TTITLE10=Eddy Arnold - Bouquet Of Roses
TTITLE11=David Houston - Almost Persuaded
TTITLE12=Jimmie Rodgers - Blue Yodel (T For Texas)
TTITLE13=Faron Young - Hello Walls
TTITLE14=Lynn Anderson - (I Never Promised You A) Rose Garden
TTITLE15=George Jones - Tender Years
EXTD=
EXTT0=
EXTT1=
EXTT2=
EXTT3=
EXTT4=
EXTT5=
EXTT6=
EXTT7=
EXTT8=
EXTT9=
EXTT10=
EXTT11=
EXTT12=
EXTT13=
EXTT14=
EXTT15=
PLAYORDER=
